<svg id="icon_2" xmlns="http://www.w3.org/2000/svg" xmlns:xlink="http://www.w3.org/1999/xlink" width="120" height="120" viewBox="0 0 120 120">
  <defs>
    <clipPath id="clip-path">
      <rect id="長方形_89408" data-name="長方形 89408" width="88" height="88" fill="none"/>
    </clipPath>
  </defs>
  <path id="長方形_89399_-_アウトライン" data-name="長方形 89399 - アウトライン" d="M32,4A27.973,27.973,0,0,0,4,32V88a27.973,27.973,0,0,0,28,28H88a27.973,27.973,0,0,0,28-28V32A27.973,27.973,0,0,0,88,4H32m0-4H88a32,32,0,0,1,32,32V88a32,32,0,0,1-32,32H32A32,32,0,0,1,0,88V32A32,32,0,0,1,32,0Z" fill="#0965b4"/>
  <g id="グループ_185285" data-name="グループ 185285" transform="translate(16 16)">
    <g id="グループ_185284" data-name="グループ 185284" clip-path="url(#clip-path)">
      <path id="パス_247862" data-name="パス 247862" d="M73.778,74.978A2,2,0,0,1,71.8,73.234l-1.254-9.715a2,2,0,1,1,3.967-.512l1,7.731,7.732-1a2,2,0,1,1,.512,3.967l-9.716,1.254A2.02,2.02,0,0,1,73.778,74.978Z" fill="#0965b4"/>
      <path id="パス_247863" data-name="パス 247863" d="M73.827,74.952a2,2,0,0,1-1.414-3.414A39.567,39.567,0,0,0,50.883,4.526,39.671,39.671,0,0,0,27.45,7.82a2,2,0,1,1-1.717-3.613A43.564,43.564,0,0,1,75.241,74.366,1.994,1.994,0,0,1,73.827,74.952Z" fill="#0965b4"/>
      <path id="パス_247864" data-name="パス 247864" d="M15.471,26.738a2,2,0,0,1-1.981-1.744l-1-7.731-7.732,1a2,2,0,0,1-.512-3.967l9.716-1.254a2,2,0,0,1,2.24,1.728l1.254,9.715a2,2,0,0,1-1.728,2.24A2.021,2.021,0,0,1,15.471,26.738Z" fill="#0965b4"/>
      <path id="パス_247865" data-name="パス 247865" d="M43.561,88a43.426,43.426,0,0,1-30.8-12.76,43.528,43.528,0,0,1,0-61.606,2,2,0,1,1,2.829,2.828,39.567,39.567,0,0,0,21.53,67.012A39.671,39.671,0,0,0,60.55,80.18a2,2,0,0,1,1.717,3.613A43.645,43.645,0,0,1,43.561,88Z" fill="#0965b4"/>
      <path id="パス_247866" data-name="パス 247866" d="M55.063,39.128V31.59L44.127,39.128V31.59L33.292,39.054,32.669,22H24.083L22,66H66V31.59ZM46.21,54.154H41.523V49.077H46.21Zm10.937,0H52.46V49.077h4.687Z" fill="#0965b4"/>
    </g>
  </g>
</svg>
