<svg id="icon_1" xmlns="http://www.w3.org/2000/svg" xmlns:xlink="http://www.w3.org/1999/xlink" width="120" height="120" viewBox="0 0 120 120">
  <defs>
    <clipPath id="clip-path">
      <rect id="長方形_89407" data-name="長方形 89407" width="88" height="88" fill="none"/>
    </clipPath>
  </defs>
  <path id="長方形_89398_-_アウトライン" data-name="長方形 89398 - アウトライン" d="M32,4A27.973,27.973,0,0,0,4,32V88a27.973,27.973,0,0,0,28,28H88a27.973,27.973,0,0,0,28-28V32A27.973,27.973,0,0,0,88,4H32m0-4H88a32,32,0,0,1,32,32V88a32,32,0,0,1-32,32H32A32,32,0,0,1,0,88V32A32,32,0,0,1,32,0Z" fill="#0965b4"/>
  <g id="グループ_185283" data-name="グループ 185283" transform="translate(16 16)">
    <g id="グループ_185282" data-name="グループ 185282" clip-path="url(#clip-path)">
      <path id="パス_247853" data-name="パス 247853" d="M44.623,15.714H43.378a12.154,12.154,0,0,0-9.951,4.927A14.182,14.182,0,0,0,30.8,28.914H57.2a14.188,14.188,0,0,0-2.626-8.273,12.155,12.155,0,0,0-9.951-4.927" fill="#0965b4"/>
      <path id="パス_247854" data-name="パス 247854" d="M50.6,6.6A6.6,6.6,0,1,1,44,0a6.6,6.6,0,0,1,6.6,6.6" fill="#0965b4"/>
      <path id="パス_247855" data-name="パス 247855" d="M44.623,74.8H43.378a12.154,12.154,0,0,0-9.951,4.927A14.182,14.182,0,0,0,30.8,88H57.2a14.188,14.188,0,0,0-2.626-8.273A12.155,12.155,0,0,0,44.623,74.8" fill="#0965b4"/>
      <path id="パス_247856" data-name="パス 247856" d="M50.6,65.686a6.6,6.6,0,1,1-6.6-6.6,6.6,6.6,0,0,1,6.6,6.6" fill="#0965b4"/>
      <path id="パス_247857" data-name="パス 247857" d="M13.823,74.8H12.578a12.154,12.154,0,0,0-9.951,4.927A14.182,14.182,0,0,0,0,88H26.4a14.188,14.188,0,0,0-2.626-8.273A12.155,12.155,0,0,0,13.823,74.8" fill="#0965b4"/>
      <path id="パス_247858" data-name="パス 247858" d="M19.8,65.686a6.6,6.6,0,1,1-6.6-6.6,6.6,6.6,0,0,1,6.6,6.6" fill="#0965b4"/>
      <path id="パス_247859" data-name="パス 247859" d="M75.423,74.8H74.178a12.154,12.154,0,0,0-9.951,4.927A14.182,14.182,0,0,0,61.6,88H88a14.188,14.188,0,0,0-2.626-8.273A12.155,12.155,0,0,0,75.423,74.8" fill="#0965b4"/>
      <path id="パス_247860" data-name="パス 247860" d="M81.4,65.686a6.6,6.6,0,1,1-6.6-6.6,6.6,6.6,0,0,1,6.6,6.6" fill="#0965b4"/>
      <path id="線_144" data-name="線 144" d="M0,21.8a2,2,0,0,1-2-2V0A2,2,0,0,1,0-2,2,2,0,0,1,2,0V19.8A2,2,0,0,1,0,21.8Z" transform="translate(44 34.1)" fill="#0965b4"/>
      <path id="パス_247861" data-name="パス 247861" d="M74.8,55.9a2,2,0,0,1-2-2V46H15.2v7.9a2,2,0,0,1-4,0V44a2,2,0,0,1,2-2H74.8a2,2,0,0,1,2,2v9.9A2,2,0,0,1,74.8,55.9Z" fill="#0965b4"/>
    </g>
  </g>
</svg>
