<svg id="icon_3" xmlns="http://www.w3.org/2000/svg" xmlns:xlink="http://www.w3.org/1999/xlink" width="120" height="120" viewBox="0 0 120 120">
  <defs>
    <clipPath id="clip-path">
      <rect id="長方形_89395" data-name="長方形 89395" width="78.531" height="80" fill="#0965b4"/>
    </clipPath>
  </defs>
  <path id="長方形_89401_-_アウトライン" data-name="長方形 89401 - アウトライン" d="M32,4A27.973,27.973,0,0,0,4,32V88a27.973,27.973,0,0,0,28,28H88a27.973,27.973,0,0,0,28-28V32A27.973,27.973,0,0,0,88,4H32m0-4H88a32,32,0,0,1,32,32V88a32,32,0,0,1-32,32H32A32,32,0,0,1,0,88V32A32,32,0,0,1,32,0Z" fill="#0965b4"/>
  <g id="グループ_185273" data-name="グループ 185273" transform="translate(21 20)">
    <g id="グループ_185262" data-name="グループ 185262" transform="translate(0 0)" clip-path="url(#clip-path)">
      <path id="パス_247806" data-name="パス 247806" d="M78.16,15.491a7.983,7.983,0,0,0-.654-2.073,1.029,1.029,0,0,0-1.817-.287l-1.02,1.428-5.764,8.1a3.625,3.625,0,0,1-5.078.632l-9.709-6.946a3.626,3.626,0,0,1-1.041-5.011l5.9-8.29.969-1.354A1.029,1.029,0,0,0,59.1.061a8.875,8.875,0,0,0-2.379.031,19.334,19.334,0,0,0-16.865,18.72c-.037,1.575,1.386,8.411-2.333,12.129L2.389,66.071A8.16,8.16,0,0,0,13.93,77.611S46.111,45.428,49.061,42.48s11.126-3.824,12.747-4.044A19.343,19.343,0,0,0,78.16,15.491M5.515,74.486a3.91,3.91,0,1,1,5.529,0,3.911,3.911,0,0,1-5.529,0" transform="translate(0 0)" fill="#0965b4"/>
    </g>
  </g>
</svg>
