<svg id="icon_4" xmlns="http://www.w3.org/2000/svg" xmlns:xlink="http://www.w3.org/1999/xlink" width="120" height="120" viewBox="0 0 120 120">
  <defs>
    <clipPath id="clip-path">
      <rect id="長方形_89409" data-name="長方形 89409" width="92" height="92" fill="none"/>
    </clipPath>
  </defs>
  <path id="長方形_89400_-_アウトライン" data-name="長方形 89400 - アウトライン" d="M32,4A27.973,27.973,0,0,0,4,32V88a27.973,27.973,0,0,0,28,28H88a27.973,27.973,0,0,0,28-28V32A27.973,27.973,0,0,0,88,4H32m0-4H88a32,32,0,0,1,32,32V88a32,32,0,0,1-32,32H32A32,32,0,0,1,0,88V32A32,32,0,0,1,32,0Z" fill="#0965b4"/>
  <g id="グループ_185287" data-name="グループ 185287" transform="translate(14 14)">
    <g id="グループ_185286" data-name="グループ 185286" clip-path="url(#clip-path)">
      <path id="パス_247867" data-name="パス 247867" d="M92,50.758l0-9.251-6.791-1.472a39.288,39.288,0,0,0-2.215-8.324l5.221-4.59L83.59,19.109l-6.628,2.124a39.924,39.924,0,0,0-6.072-6.1l2.229-6.591-8.01-4.627L60.437,9.064A39.4,39.4,0,0,0,52.12,6.813L50.756,0,41.507,0,40.036,6.79A39.371,39.371,0,0,0,31.71,9.007L27.119,3.786l-8.01,4.623,2.124,6.629a39.917,39.917,0,0,0-6.1,6.073l-6.595-2.23-4.625,8.01,5.15,4.673a39.356,39.356,0,0,0-2.25,8.312L0,41.24v9.253l6.792,1.472a39.315,39.315,0,0,0,2.216,8.32L3.782,64.879,8.41,72.891l6.631-2.125a39.781,39.781,0,0,0,6.069,6.095l-2.231,6.6,8.012,4.626,4.674-5.151a39.281,39.281,0,0,0,8.311,2.249L41.242,92h9.251l1.472-6.793a39.349,39.349,0,0,0,8.322-2.215l4.592,5.224,8.012-4.625-2.125-6.63a39.9,39.9,0,0,0,6.1-6.07l6.594,2.23,4.627-8.011-5.15-4.674a39.278,39.278,0,0,0,2.251-8.312ZM46,77.364A31.364,31.364,0,1,1,77.364,46,31.363,31.363,0,0,1,46,77.364" fill="#0965b4"/>
      <path id="パス_247868" data-name="パス 247868" d="M29.129,39.525a4.8,4.8,0,0,0-1.375-1.119,3.391,3.391,0,0,0-1.537-.339,2.818,2.818,0,0,0-1.807.579,1.749,1.749,0,0,0-.729,1.413,1.476,1.476,0,0,0,.58,1.2,8.361,8.361,0,0,0,2.144,1.062q.728.271,1.266.485t.958.416a6.485,6.485,0,0,1,.741.418,5.525,5.525,0,0,1,.62.483,4.672,4.672,0,0,1,1.59,3.77,6.153,6.153,0,0,1-.458,2.408,5.475,5.475,0,0,1-1.281,1.871,5.792,5.792,0,0,1-1.969,1.212,7.223,7.223,0,0,1-2.547.43,7.091,7.091,0,0,1-3.465-.822,8.042,8.042,0,0,1-2.71-2.6l2.264-2.184A4.69,4.69,0,0,0,23.009,50a3.937,3.937,0,0,0,2.184.628,2.875,2.875,0,0,0,1.995-.7,2.347,2.347,0,0,0,.782-1.837A2.1,2.1,0,0,0,27,46.285a4.951,4.951,0,0,0-.836-.434q-.566-.243-1.672-.648a14.96,14.96,0,0,1-2.048-.93,5.472,5.472,0,0,1-1.362-1.053,3.717,3.717,0,0,1-.768-1.284,4.847,4.847,0,0,1-.243-1.592,5.178,5.178,0,0,1,.418-2.1,4.939,4.939,0,0,1,1.173-1.661A5.418,5.418,0,0,1,23.44,35.5a6.206,6.206,0,0,1,2.237-.391,7.765,7.765,0,0,1,5.284,2.011Z" transform="translate(0.871 1.596)" fill="#0965b4"/>
      <path id="パス_247869" data-name="パス 247869" d="M47.015,40.23A7.911,7.911,0,0,0,44.9,38.66a5.267,5.267,0,0,0-2.278-.479,5.578,5.578,0,0,0-2.319.487A5.756,5.756,0,0,0,38.442,40a6.29,6.29,0,0,0-1.24,1.989,6.621,6.621,0,0,0-.459,2.478,6.415,6.415,0,0,0,.459,2.451,6.1,6.1,0,0,0,1.252,1.951,5.646,5.646,0,0,0,1.888,1.285,6,6,0,0,0,2.359.461,5.342,5.342,0,0,0,2.265-.451,7.359,7.359,0,0,0,2.048-1.545V52.74a11.879,11.879,0,0,1-2.237.808,9.321,9.321,0,0,1-2.157.243,9.545,9.545,0,0,1-6.728-2.71,9.268,9.268,0,0,1-2.021-2.951,9,9,0,0,1-.741-3.64,9.249,9.249,0,0,1,.741-3.693,9.528,9.528,0,0,1,5.055-5.056A9.269,9.269,0,0,1,42.621,35a8.9,8.9,0,0,1,2.21.256,11.275,11.275,0,0,1,2.184.849Z" transform="translate(1.506 1.591)" fill="#0965b4"/>
      <path id="パス_247870" data-name="パス 247870" d="M51.946,35.077h2.4l4.906,11.755,5.095-11.755h2.428l2.992,18.306H66.235L64.617,42.3,59.683,53.627h-.97L53.942,42.3,52.135,53.383H48.6Z" transform="translate(2.209 1.594)" fill="#0965b4"/>
    </g>
  </g>
</svg>
